# AST/ASF file generated using VICON BodyLanguage
# -----------------------------------------------
:version 1.10
:name VICON
:units
  mass 1.0
  length 0.45
  angle deg
:documentation
   .ast/.asf automatically generated from VICON data using
   VICON BodyBuilder and BodyLanguage model FoxedUp or BRILLIANT.MOD
:root
   order TX TY TZ RX RY RZ
   axis XYZ
   position 0 0 0  
   orientation 0 0 0 
:bonedata
  begin
     id 1 
     name lhipjoint
     direction 0.711131 -0.61297 0.344326 
     length 2.29162 
     axis 0 0 0  XYZ
  end
  begin
     id 2 
     name lfemur
     direction 0.34202 -0.939693 0  
     length 6.71424  
     axis 0 0 20  XYZ
    dof rx ry rz
    limits (-160.0 20.0)
           (-70.0 70.0)
           (-60.0 70.0)
  end
  begin
     id 3 
     name ltibia
     direction 0.34202 -0.939693 0   
     length 6.7087   
     axis 0 0 20   XYZ
    dof rx
    limits (-10.0 170.0)
  end
  begin
     id 4 
     name lfoot
     direction 0.0230374 -0.0632947 0.997729   
     length 1.56743   
     axis -90 7.62852e-016 20   XYZ
    dof rx rz
    limits (-45.0 90.0)
           (-70.0 20.0)
  end
  begin
     id 5 
     name ltoes
     direction 1.53585e-011 -4.21885e-011 1   
     length 0.802914   
     axis -90 7.62852e-016 20   XYZ
    dof rx
    limits (-90.0 20.0)
  end
  begin
     id 6 
     name rhipjoint
     direction -0.733192 -0.592884 0.333043   
     length 2.36925  
     axis 0 0 0  XYZ 
  end
  begin
     id 7 
     name rfemur
     direction -0.34202 -0.939693 0   
     length 6.67027   
     axis 0 0 -20   XYZ
    dof rx ry rz
    limits (-160.0 20.0)
           (-70.0 70.0)
           (-70.0 60.0)
  end
  begin
     id 8 
     name rtibia
     direction -0.34202 -0.939693 0   
     length 6.6862   
     axis 0 0 -20   XYZ
    dof rx
    limits (-10.0 170.0)
 end
 begin
     id 9 
     name rfoot
     direction -0.0949739 -0.260939 0.960672   
     length 1.67698  
     axis -90 -7.62852e-016 -20   XYZ
    dof rx rz
    limits (-45.0 90.0)
           (-20.0 70.0)
  end
  begin
     id 10 
     name rtoes
     direction -1.5353e-011 -4.21868e-011 1   
     length 0.846298   
     axis -90 -7.62852e-016 -20   XYZ
    dof rx
    limits (-90.0 20.0)
  end
  begin
     id 11 
     name lowerback
     direction -0.0206828 0.999785 -0.00109866   
     length 2.04382   
     axis 0 0 0   XYZ
    dof rx ry rz
    limits (-20.0 45.0)
           (-30.0 30.0)
           (-30.0 30.0)
  end
  begin
     id 12 
     name upperback
     direction -0.0105003 0.999727 -0.0208904   
     length 2.04538   
     axis 0 0 0   XYZ
    dof rx ry rz
    limits (-20.0 45.0)
           (-30.0 30.0)
           (-30.0 30.0)
  end
  begin
     id 13 
     name thorax
     direction -0.000416255 0.999808 -0.0196023   
     length 2.0399   
     axis 0 0 0   XYZ
    dof rx ry rz
    limits (-20.0 45.0)
           (-30.0 30.0)
           (-30.0 30.0)
  end
  begin
     id 14 
     name lowerneck
     direction 0.0627861 0.989205 0.13241   
     length 1.46207   
     axis 0 0 0   XYZ
    dof rx ry rz
    limits (-20.0 45.0)
           (-30.0 30.0)
           (-30.0 30.0)
  end
  begin
     id 15 
     name upperneck
     direction 0.00627179 0.994526 0.104303   
     length 1.41419   
     axis 0 0 0   XYZ
    dof rx ry rz
    limits (-20.0 45.0)
           (-30.0 30.0)
           (-30.0 30.0)
  end
  begin
     id 16
     name head
     direction -0.00443838 0.999688 0.0245968  
     length 1.50718  
     axis 0 0 0   XYZ
    dof rx ry rz
    limits (-20.0 45.0)
           (-30.0 30.0)
           (-30.0 30.0)
  end
  begin
     id 17 
     name lclavicle
     direction 0.758742 0.650995 -0.0227258  
     length 2.86888  
     axis 0 0 0   XYZ
    dof ry rz
    limits (-20.0 10.0)
           (0.0 20.0)
  end
  begin
     id 18 
     name lhumerus
     direction 1 -4.48962e-011 1.06664e-027   
     length 4.65776   
     axis -180 -30 -90   XYZ
    dof rx ry rz
    limits (-60.0 90.0)
           (-90.0 90.0)
           (-90.0 90.0)
  end
  begin
     id 19
     name lradius
     direction 1 -4.48968e-011 1.40404e-026   
     length 3.55539   
     axis -180 -30 -90   XYZ
    dof rx
    limits (-10.0 170.0)
  end
  begin
     id 20
     name lwrist
     direction 1 -4.48976e-011 3.32647e-026   
     length 1.77769   
     axis -2.20186e-014 90 90   XYZ
    dof ry
    limits (-180.0 0.0)
 end
  begin
     id 21 
     name lhand
     direction 1 -4.48982e-011 6.65293e-026   
     length 0.707264   
     axis -4.24514e-014 90 90   XYZ
    dof rx rz
    limits (-90.0 90.0)
           (-45.0 45.0)
  end
  begin
     id 22 
     name lfingers
     direction 1 -4.48966e-011 1.33059e-025   
     length 0.570215   
     axis -8.49028e-014 90 90   XYZ
    dof rx
    limits (0.0 90.0)
  end
  begin
     id 23
     name lthumb
     direction 0.707107 -6.3493e-011 0.707107   
     length 0.818718   
     axis -90 45 2.85299e-015   XYZ
    dof rx rz
    limits (-45.0 45.0)
           (-45.0 45.0)
  end
  begin
     id 24 
     name rclavicle
     direction -0.870343 0.482028 -0.100759   
     length 3.2251  
     axis 0 0 0   XYZ 
    dof ry rz
    limits (-10.0 20.0)
           (-20.0 0.0)
  end
  begin
     id 25 
     name rhumerus
     direction -1 -4.48974e-011 -9.45849e-028  
     length 4.71925   
     axis -180 30 90   XYZ
    dof rx ry rz
    limits (-90.0 60.0)
           (-90.0 90.0)
           (-90.0 90.0)
  end
  begin
     id 26 
     name rradius
     direction -1 -4.48965e-011 1.17607e-026   
     length 3.5699   
     axis -180 30 90   XYZ
    dof rx
    limits (-10.0 170.0)
  end
  begin
     id 27 
     name rwrist
     direction -1 -4.48968e-011 3.32647e-026   
     length 1.78495   
     axis -2.20186e-014 -90 -90   XYZ
    dof ry
    limits (-180.0 0.0)
  end
  begin
     id 28
     name rhand
     direction -1 -4.48995e-011 6.65293e-026   
     length 0.507757   
     axis -4.24514e-014 -90 -90   XYZ
    dof rx rz
    limits (-90.0 90.0)
           (-45.0 45.0)
  end
  begin
     id 29
     name rfingers
     direction -1 -4.48864e-011 1.33059e-025   
     length 0.409367   
     axis -8.49028e-014 -90 -90   XYZ
    dof rx
    limits (0.0 90.0)
  end
  begin
     id 30
     name rthumb
     direction -0.707107 -6.3494e-011 0.707107   
     length 0.587771   
     axis -90 -45 -2.85299e-015   XYZ
    dof rx rz
    limits (-45.0 45.0)
           (-45.0 45.0)
  end
:hierarchy
  begin
    root lhipjoint rhipjoint lowerback
    lhipjoint lfemur
    lfemur ltibia
    ltibia lfoot
    lfoot ltoes
    rhipjoint rfemur
    rfemur rtibia
    rtibia rfoot
    rfoot rtoes
    lowerback upperback
    upperback thorax
    thorax lowerneck lclavicle rclavicle
    lowerneck upperneck
    upperneck head
    lclavicle lhumerus
    lhumerus lradius
    lradius lwrist
    lwrist lhand lthumb
    lhand lfingers
    rclavicle rhumerus
    rhumerus rradius
    rradius rwrist
    rwrist rhand rthumb
    rhand rfingers
  end

#!OML:ASF E:\Steps\Project 1\Capture day 1\Session 2\Subject.ASF
:FULLY-SPECIFIED
:DEGREES
41
root -1.17129 17.9984 21.1407 -153.538 -2.1287 178.474
lowerback -25.2464 -3.38327 -7.28667
upperback 0.475969 -2.54005 -0.273022
thorax 15.1124 -1.80188 2.87755
lowerneck 0.230856 -7.92497 -2.1011
upperneck 17.095 -10.0548 2.39297
head 5.34924 -4.52167 0.651782
rclavicle -2.98177e-015 1.66979e-014
rhumerus -38.361 8.80069 -93.3225
rradius 98.7029
rwrist -10.4538
rhand -22.8117 -39.1358
rfingers 7.12502
rthumb 3.62494 -69.0847
lclavicle -2.98177e-015 1.66979e-014
lhumerus -26.3498 6.95079 81.22
lradius 22.5362
lwrist -2.7822
lhand -24.278 -12.0084
lfingers 7.12502
lthumb 2.2089 17.9599
rfemur -25.3735 5.12252 19.7275
rtibia 7.50595
rfoot -18.1053 -5.59374
rtoes -25.3209
lfemur -24.8794 -7.22765 -22.6058
ltibia 7.60414
lfoot -7.00249 -0.096767
ltoes -26.6573
42
root -1.16776 17.9982 21.1448 -153.504 -2.08803 178.473
lowerback -25.2415 -3.41152 -7.34947
upperback 0.424677 -2.56786 -0.267067
thorax 15.054 -1.81922 2.91073
lowerneck 0.229975 -7.9004 -2.11551
upperneck 17.2469 -10.0024 2.3481
head 5.39391 -4.49112 0.640901
rclavicle 2.28602e-014 6.36111e-015
rhumerus -38.0325 9.21171 -93.5602
rradius 99.4572
rwrist -9.83741
rhand -23.2715 -38.3397
rfingers 7.12502
rthumb 3.18092 -68.2957
lclavicle 2.28602e-014 6.36111e-015
lhumerus -26.3886 7.22371 81.1027
lradius 22.3296
lwrist -2.97281
lhand -24.1014 -12.0509
lfingers 7.12502
lthumb 2.37939 17.9155
rfemur -25.4583 5.17861 19.7206
rtibia 7.52718
rfoot -18.1033 -5.57343
rtoes -24.4713
lfemur -24.9504 -7.17574 -22.5938
ltibia 7.63395
lfoot -7.00203 -0.141913
ltoes -25.6899
43
root -1.1637 17.9955 21.1485 -153.412 -2.03479 178.485
lowerback -25.2646 -3.36309 -7.34538
upperback 0.341198 -2.50959 -0.323724
thorax 14.9555 -1.79018 2.86567
lowerneck 0.259412 -7.90021 -2.12014
upperneck 17.3519 -10.0064 2.45524
head 5.42757 -4.47921 0.674077
rclavicle -9.93923e-015 -1.74931e-014
rhumerus -37.762 9.59367 -93.7251
rradius 100.583
rwrist -9.71283
rhand -23.1407 -37.8169
rfingers 7.12502
rthumb 3.30718 -67.771
lclavicle -9.93923e-015 -1.74931e-014
lhumerus -26.3893 7.28709 80.9824
lradius 22.0795
lwrist -3.25765
lhand -24.0573 -12.1687
lfingers 7.12502
lthumb 2.42201 17.7973
rfemur -25.6101 5.35719 19.6952
rtibia 7.54042
rfoot -18.1227 -5.61356
rtoes -23.5569
lfemur -25.0899 -7.04577 -22.5917
ltibia 7.70535
lfoot -7.07318 -0.213958
ltoes -25.7564
44
root -1.1622 17.9942 21.1486 -153.425 -1.99313 178.489
lowerback -25.1671 -3.27168 -7.3139
upperback 0.255882 -2.40885 -0.402855
thorax 14.7796 -1.73667 2.79939
lowerneck 0.346842 -7.93524 -2.09748
upperneck 17.3835 -10.0596 2.54999
head 5.42792 -4.49348 0.700206
rclavicle -6.36111e-015 9.54166e-015
rhumerus -37.4823 9.98179 -93.7954
rradius 101.819
rwrist -10.0841
rhand -22.7121 -38.1006
rfingers 7.12502
rthumb 3.72111 -68.0479
lclavicle -6.36111e-015 9.54166e-015
lhumerus -26.4512 7.15068 80.911
lradius 21.8898
lwrist -3.48115
lhand -24.1285 -12.4013
lfingers 7.12502
lthumb 2.35323 17.5655
rfemur -25.5817 5.38565 19.6905
rtibia 7.48026
rfoot -18.1267 -5.56053
rtoes -23.6663
lfemur -25.0497 -7.09614 -22.5837
ltibia 7.65964
lfoot -7.05799 -0.09417
ltoes -26.4597
45
root -1.1598 17.9944 21.1493 -153.457 -1.98123 178.482
lowerback -25.2307 -3.24365 -7.33888
upperback 0.28847 -2.35105 -0.442082
thorax 14.8475 -1.71275 2.78717
lowerneck 0.267047 -7.96352 -2.14284
upperneck 17.4985 -10.0997 2.59758
head 5.48322 -4.50756 0.714615
rclavicle -1.37161e-014 7.95139e-016
rhumerus -37.056 10.3434 -93.8545
rradius 102.871
rwrist -10.4194
rhand -22.7925 -38.7726
rfingers 7.12502
rthumb 3.64351 -68.7212
lclavicle -1.37161e-014 7.95139e-016
lhumerus -26.4099 7.02232 80.895
lradius 21.818
lwrist -3.44374
lhand -24.0441 -12.5872
lfingers 7.12502
lthumb 2.4348 17.3786
rfemur -25.5393 5.35886 19.6974
rtibia 7.45654
rfoot -18.1275 -5.52518
rtoes -24.0611
lfemur -24.9905 -7.18156 -22.5716
ltibia 7.57214
lfoot -6.95406 0.0446562
ltoes -26.9861
46
root -1.15711 17.9943 21.15 -153.468 -1.99389 178.471
lowerback -25.2464 -3.25054 -7.38439
upperback 0.283656 -2.34651 -0.442383
thorax 14.8521 -1.71461 2.81406
lowerneck 0.216893 -7.98565 -2.17364
upperneck 17.6163 -10.1167 2.55472
head 5.52846 -4.51485 0.701533
rclavicle 3.57812e-015 -1.51076e-014
rhumerus -36.8192 10.5978 -93.9353
rradius 103.758
rwrist -10.383
rhand -23.3949 -38.7138
rfingers 7.12502
rthumb 3.06177 -68.6716
lclavicle 3.57812e-015 -1.51076e-014
lhumerus -26.4276 6.94859 80.9151
lradius 21.7679
lwrist -3.32666
lhand -23.9415 -12.7446
lfingers 7.12502
lthumb 2.53382 17.2201
rfemur -25.5633 5.2806 19.7303
rtibia 7.53863
rfoot -18.1103 -5.54131
rtoes -24.7522
lfemur -24.972 -7.26848 -22.5512
ltibia 7.54953
lfoot -6.95661 0.127971
ltoes -26.7645
47
root -1.1562 17.9946 21.1496 -153.489 -2.01759 178.427
lowerback -25.2481 -3.25746 -7.42725
upperback 0.272229 -2.34302 -0.460284
thorax 14.8399 -1.71575 2.81908
lowerneck 0.239135 -7.99649 -2.1355
upperneck 17.603 -10.1266 2.51384
head 5.51669 -4.52016 0.683735
rclavicle -8.54774e-015 7.95139e-016
rhumerus -36.6473 10.8561 -94.0297
rradius 104.564
rwrist -10.3065
rhand -24.0517 -38.3686
rfingers 7.12502
rthumb 2.42744 -68.3345
lclavicle -8.54774e-015 7.95139e-016
lhumerus -26.4374 7.00395 80.8948
lradius 21.6664
lwrist -3.53235
lhand -23.8577 -12.5847
lfingers 7.12502
lthumb 2.61476 17.3791
rfemur -25.5254 5.04132 19.7663
rtibia 7.54518
rfoot -18.0673 -5.45286
rtoes -25.9242
lfemur -24.9581 -7.37599 -22.5775
ltibia 7.59971
lfoot -7.04107 0.173816
ltoes -26.3169
48
root -1.15549 17.9965 21.1493 -153.564 -2.04285 178.405
lowerback -25.1788 -3.26129 -7.46878
upperback 0.256522 -2.34338 -0.45995
thorax 14.7837 -1.71766 2.84569
lowerneck 0.22614 -8.01591 -2.07958
upperneck 17.6676 -10.1335 2.39405
head 5.53012 -4.52406 0.636562
rclavicle 2.26615e-014 -1.98785e-014
rhumerus -36.3507 11.2646 -94.074
rradius 105.247
rwrist -10.3721
rhand -24.3691 -38.67
rfingers 7.12502
rthumb 2.12089 -68.6392
lclavicle 2.26615e-014 -1.98785e-014
lhumerus -26.5267 7.14037 80.8693
lradius 21.6592
lwrist -3.79075
lhand -23.661 -12.224
lfingers 7.12502
lthumb 2.80478 17.7373
rfemur -25.4007 5.03932 19.7365
rtibia 7.46778
rfoot -18.0094 -5.44289
rtoes -25.7847
lfemur -24.8855 -7.43982 -22.597
ltibia 7.63595
lfoot -7.07601 0.222812
ltoes -26.2478
49
root -1.15271 17.9947 21.1515 -153.482 -1.99452 178.392
lowerback -25.3131 -3.25129 -7.55584
upperback 0.245181 -2.29754 -0.451179
thorax 14.8449 -1.70694 2.91892
lowerneck 0.255853 -8.078 -2.05708
upperneck 17.5871 -10.2247 2.39635
head 5.50129 -4.57159 0.63128
rclavicle -2.18663e-015 1.27222e-014
rhumerus -35.974 11.5466 -94.0532
rradius 105.92
rwrist -10.4436
rhand -24.1387 -38.841
rfingers 7.12502
rthumb 2.34341 -68.8078
lclavicle -2.18663e-015 1.27222e-014
lhumerus -26.5636 7.00124 80.977
lradius 21.7686
lwrist -3.64356
lhand -23.7441 -12.0323
lfingers 7.12502
lthumb 2.72453 17.9301
rfemur -25.5197 5.3387 19.6278
rtibia 7.48648
rfoot -17.9623 -5.5623
rtoes -24.4422
lfemur -24.9985 -7.36832 -22.6229
ltibia 7.68697
lfoot -7.08481 0.201791
ltoes -26.6301
50
root -1.15293 17.9951 21.1495 -153.54 -2.04376 178.355
lowerback -25.3409 -3.23577 -7.5737
upperback 0.289078 -2.25941 -0.484803
thorax 14.9086 -1.69099 2.90267
lowerneck 0.280421 -8.14806 -2.04901
upperneck 17.4376 -10.3463 2.4968
head 5.45849 -4.63269 0.657421
rclavicle 1.23246e-014 1.51076e-014
rhumerus -35.7393 11.6322 -94.0824
rradius 106.606
rwrist -10.3841
rhand -23.832 -38.5139
rfingers 7.12502
rthumb 2.63959 -68.4773
lclavicle 1.23246e-014 1.51076e-014
lhumerus -26.5479 6.80542 81.0603
lradius 21.8443
lwrist -3.48514
lhand -23.9684 -11.8829
lfingers 7.12502
lthumb 2.5079 18.0821
rfemur -25.4081 5.45828 19.5335
rtibia 7.41441
rfoot -17.996 -5.69224
rtoes -24.1977
lfemur -24.926 -7.60673 -22.614
ltibia 7.67555
lfoot -7.10888 0.368805
ltoes -27.2327
51
root -1.15514 17.9934 21.1427 -153.622 -2.06058 178.406
lowerback -25.3627 -3.17934 -7.44924
upperback 0.305905 -2.2136 -0.512613
thorax 14.929 -1.65982 2.81593
lowerneck 0.138899 -8.18448 -2.03312
upperneck 17.5103 -10.3878 2.40333
head 5.50025 -4.65635 0.616705
rclavicle 1.13307e-014 -2.46493e-014
rhumerus -35.6629 11.7497 -94.1367
rradius 107.195
rwrist -10.2787
rhand -24.3111 -38.6806
rfingers 7.12502
rthumb 2.17688 -68.6493
lclavicle 1.13307e-014 -2.46493e-014
lhumerus -26.5778 6.8675 81.0407
lradius 21.8365
lwrist -3.57431
lhand -24.0123 -11.9623
lfingers 7.12502
lthumb 2.46548 18.0032
rfemur -25.261 5.34346 19.6169
rtibia 7.34474
rfoot -18.0416 -5.59975
rtoes -24.885
lfemur -24.7881 -7.82834 -22.5154
ltibia 7.61211
lfoot -7.15789 0.60603
ltoes -27.139
52
root -1.15497 17.9936 21.1413 -153.643 -2.12358 178.443
lowerback -25.384 -3.16345 -7.39091
upperback 0.306755 -2.20888 -0.498885
thorax 14.9397 -1.65378 2.79993
lowerneck -0.0481933 -8.21878 -2.05605
upperneck 17.6135 -10.4309 2.35249
head 5.56366 -4.67944 0.592306
rclavicle 1.41137e-014 -8.74653e-015
rhumerus -35.4796 11.9889 -94.1274
rradius 107.677
rwrist -10.3896
rhand -25.3714 -39.7736
rfingers 7.12502
rthumb 1.15289 -69.7503
lclavicle 1.41137e-014 -8.74653e-015
lhumerus -26.5849 6.95939 81.0657
lradius 21.7889
lwrist -3.72195
lhand -24.2266 -12.2801
lfingers 7.12502
lthumb 2.25855 17.6876
rfemur -25.187 5.40367 19.6616
rtibia 7.27174
rfoot -18.0731 -5.78812
rtoes -25.5996
lfemur -24.794 -7.81882 -22.4682
ltibia 7.68119
lfoot -7.1862 0.579497
ltoes -26.656
53
root -1.15295 17.9954 21.1423 -153.659 -2.19857 178.425
lowerback -25.3901 -3.17534 -7.42717
upperback 0.300475 -2.21431 -0.499338
thorax 14.9377 -1.65911 2.8179
lowerneck -0.0628814 -8.23677 -2.04658
upperneck 17.6215 -10.4642 2.41066
head 5.57209 -4.69051 0.606056
rclavicle -1.35174e-014 1.59028e-015
rhumerus -35.2224 12.2681 -94.1042
rradius 108.072
rwrist -10.4289
rhand -25.5665 -40.2015
rfingers 7.12502
rthumb 0.964389 -70.1791
lclavicle -1.35174e-014 1.59028e-015
lhumerus -26.613 6.86339 81.1038
lradius 21.8053
lwrist -3.70486
lhand -24.4489 -12.5091
lfingers 7.12502
lthumb 2.04387 17.4609
rfemur -25.1247 5.68966 19.5783
rtibia 7.19539
rfoot -18.1124 -6.13326
rtoes -25.1584
lfemur -24.8093 -7.88794 -22.4528
ltibia 7.72861
lfoot -7.15306 0.588729
ltoes -26.5977
54
root -1.15155 17.9947 21.1416 -153.651 -2.24652 178.397
lowerback -25.4677 -3.16864 -7.49338
upperback 0.273915 -2.18192 -0.522375
thorax 14.9473 -1.65032 2.83924
lowerneck 0.0150646 -8.2489 -1.98998
upperneck 17.7235 -10.4541 2.31048
head 5.58227 -4.68069 0.569363
rclavicle 4.57205e-015 -7.15625e-015
rhumerus -35.1261 12.4094 -94.1055
rradius 108.46
rwrist -10.2158
rhand -25.9709 -39.6642
rfingers 7.12502
rthumb 0.573853 -69.6432
lclavicle 4.57205e-015 -7.15625e-015
lhumerus -26.6661 6.63023 81.1463
lradius 21.8856
lwrist -3.53086
lhand -24.4468 -12.4749
lfingers 7.12502
lthumb 2.04588 17.4951
rfemur -25.1133 5.65867 19.5517
rtibia 7.16443
rfoot -18.0796 -6.10619
rtoes -24.1587
lfemur -24.8054 -8.03174 -22.4419
ltibia 7.67199
lfoot -7.10901 0.665857
ltoes -26.8073
55
root -1.15074 17.9943 21.1398 -153.668 -2.33015 178.366
lowerback -25.5397 -3.15311 -7.56954
upperback 0.268949 -2.13188 -0.543352
thorax 14.9784 -1.63454 2.87533
lowerneck 0.0213939 -8.26397 -1.96847
upperneck 17.8786 -10.4419 2.18107
head 5.62146 -4.67214 0.525166
rclavicle 8.74653e-015 -7.95139e-016
rhumerus -35.0975 12.3825 -94.106
rradius 108.808
rwrist -10.1576
rhand -27.7219 -39.5988
rfingers 7.12502
rthumb -1.1173 -69.5756
lclavicle 8.74653e-015 -7.95139e-016
lhumerus -26.6634 6.35144 81.2358
lradius 21.9617
lwrist -3.2676
lhand -24.4079 -12.4322
lfingers 7.12502
lthumb 2.08342 17.5374
rfemur -25.1242 5.30476 19.6199
rtibia 7.25764
rfoot -18.0968 -5.96033
rtoes -24.6407
lfemur -24.7886 -8.00905 -22.4773
ltibia 7.65791
lfoot -7.09994 0.541092
ltoes -26.5974
